<svg width="32" height="32" viewBox="0 0 32 32" fill="none" xmlns="http://www.w3.org/2000/svg">
<g clip-path="url(#clip0_33_498)">
<path d="M22 4C19.68 4 17.4534 5.08 16 6.78667C14.5467 5.08 12.32 4 10 4C5.89335 4 2.66669 7.22667 2.66669 11.3333C2.66669 16.3733 7.20002 20.48 14.0667 26.72L16 28.4667L17.9334 26.7067C24.8 20.48 29.3334 16.3733 29.3334 11.3333C29.3334 7.22667 26.1067 4 22 4ZM16.1334 24.7333L16 24.8667L15.8667 24.7333C9.52002 18.9867 5.33335 15.1867 5.33335 11.3333C5.33335 8.66667 7.33335 6.66667 10 6.66667C12.0534 6.66667 14.0534 7.98667 14.76 9.81333H17.2534C17.9467 7.98667 19.9467 6.66667 22 6.66667C24.6667 6.66667 26.6667 8.66667 26.6667 11.3333C26.6667 15.1867 22.48 18.9867 16.1334 24.7333Z" fill="#FAFAFA"/>
</g>
<defs>
<clipPath id="clip0_33_498">
<rect width="32" height="32" fill="white"/>
</clipPath>
</defs>
</svg>
